<?xml version="1.0" encoding="utf-8"?>
<svg version="1.1" xmlns:xlink="http://www.w3.org/1999/xlink" width="470px" height="464px" xmlns="http://www.w3.org/2000/svg">
  <g transform="matrix(1 0 0 1 -748 -295 )">
    <path d="M 748 295  L 1218 295  L 1218 759  L 748 759  L 748 295  " fill-rule="nonzero" fill="#cccccc" stroke="none" />
    <path d="M 780 327  L 1186 327  L 1186 727  L 780 727  L 780 327  " fill-rule="nonzero" fill="#ffffff" stroke="none" />
    <path d="M 1027.2 434.20000000000005  C 1007.712 434.20000000000005  992.4 418.88800000000003  992.4 399.40000000000003  C 992.4 379.91200000000003  1007.712 364.6  1027.2 364.6  C 1046.688 364.6  1062 379.91200000000003  1062 399.40000000000003  C 1062 418.88800000000003  1046.688 434.20000000000005  1027.2 434.20000000000005  " fill-rule="nonzero" fill="#cccccc" stroke="none" />
    <path d="M 792 716  L 792 508.65  L 887.75 414.4  L 1021.8 492.6876595744681  L 1098.4 470.95  L 1175 492.6876595744681  L 1175 716  L 792 716  " fill-rule="nonzero" fill="#169bd5" stroke="none" />
  </g>
</svg>