<?xml version="1.0" encoding="utf-8"?>
<svg version="1.1" xmlns:xlink="http://www.w3.org/1999/xlink" width="641px" height="386px" xmlns="http://www.w3.org/2000/svg">
  <g transform="matrix(1 0 0 1 -731 -597 )">
    <path d="M 731 597  L 1372 597  L 1372 983  L 731 983  L 731 597  " fill-rule="nonzero" fill="#cccccc" stroke="none" />
    <path d="M 758 624  L 1345 624  L 1345 956  L 758 956  L 758 624  " fill-rule="nonzero" fill="#ffffff" stroke="none" />
    <path d="M 1093.27 712.8  C 1077.058 712.8  1064.32 700.0619999999999  1064.32 683.8499999999999  C 1064.32 667.6379999999999  1077.058 654.9  1093.27 654.9  C 1109.482 654.9  1122.22 667.6379999999999  1122.22 683.8499999999999  C 1122.22 700.0619999999999  1109.482 712.8  1093.27 712.8  " fill-rule="nonzero" fill="#cccccc" stroke="none" />
    <path d="M 768 947  L 768 774.85  L 910 696.6  L 1108.8 833.9098283931357  L 1222.4 743.55  L 1336 833.9098283931357  L 1336 947  L 768 947  " fill-rule="nonzero" fill="#169bd5" stroke="none" />
  </g>
</svg>