<?xml version="1.0" encoding="utf-8"?>
<svg version="1.1" xmlns:xlink="http://www.w3.org/1999/xlink" width="548px" height="363px" xmlns="http://www.w3.org/2000/svg">
  <g transform="matrix(1 0 0 1 -75 -748 )">
    <path d="M 75 748  L 623 748  L 623 1111  L 75 1111  L 75 748  " fill-rule="nonzero" fill="#cccccc" stroke="none" />
    <path d="M 100 773  L 598 773  L 598 1086  L 100 1086  L 100 773  " fill-rule="nonzero" fill="#ffffff" stroke="none" />
    <path d="M 387.18500000000006 856.9000000000001  C 371.939 856.9000000000001  359.96000000000004 844.921  359.96000000000004 829.6750000000001  C 359.96000000000004 814.4290000000001  371.939 802.45  387.18500000000006 802.45  C 402.43100000000004 802.45  414.41 814.4290000000001  414.41 829.6750000000001  C 414.41 844.921  402.43100000000004 856.9000000000001  387.18500000000006 856.9000000000001  " fill-rule="nonzero" fill="#cccccc" stroke="none" />
    <path d="M 109 1077  L 109 914.75  L 229 841  L 397 959.7536496350365  L 493 885.25  L 589 959.7536496350365  L 589 1077  L 109 1077  " fill-rule="nonzero" fill="#169bd5" stroke="none" />
  </g>
</svg>