<?xml version="1.0" encoding="utf-8"?>
<svg version="1.1" xmlns:xlink="http://www.w3.org/1999/xlink" width="606px" height="815px" xmlns="http://www.w3.org/2000/svg">
  <g transform="matrix(1 0 0 1 -238 -335 )">
    <path d="M 238 335  L 844 335  L 844 1150  L 238 1150  L 238 335  " fill-rule="nonzero" fill="#cccccc" stroke="none" />
    <path d="M 280 377  L 802 377  L 802 1108  L 280 1108  L 280 377  " fill-rule="nonzero" fill="#ffffff" stroke="none" />
    <path d="M 598.5699999999999 548.15  C 573.1179999999999 548.15  553.12 528.1519999999999  553.12 502.7  C 553.12 477.248  573.1179999999999 457.25  598.5699999999999 457.25  C 624.0219999999999 457.25  644.02 477.248  644.02 502.7  C 644.02 528.1519999999999  624.0219999999999 548.15  598.5699999999999 548.15  " fill-rule="nonzero" fill="#cccccc" stroke="none" />
    <path d="M 295 1093  L 295 707.45  L 418 532.1999999999999  L 590.2 672.4000000000001  L 688.6 637.3499999999999  L 787 672.4000000000001  L 787 1093  L 295 1093  " fill-rule="nonzero" fill="#169bd5" stroke="none" />
  </g>
</svg>