<?xml version="1.0" encoding="utf-8"?>
<svg version="1.1" xmlns:xlink="http://www.w3.org/1999/xlink" width="5px" height="5px" xmlns="http://www.w3.org/2000/svg">
  <g transform="matrix(1 0 0 1 -1113 -55 )">
    <path d="M 3.873697916666667 3.873697916666667  C 4.254195601851852 3.4932002314814814  4.444444444444445 3.0353009259259256  4.444444444444445 2.5  C 4.444444444444445 1.964699074074074  4.254195601851852 1.5067997685185186  3.873697916666667 1.126302083333333  C 3.4932002314814814 0.7458043981481477  3.035300925925926 0.5555555555555558  2.5 0.5555555555555558  C 1.9646990740740742 0.5555555555555558  1.5067997685185186 0.7458043981481477  1.1263020833333333 1.126302083333333  C 0.7458043981481483 1.5067997685185186  0.5555555555555556 1.964699074074074  0.5555555555555556 2.5  C 0.5555555555555556 3.0353009259259256  0.7458043981481483 3.4932002314814814  1.1263020833333333 3.873697916666667  C 1.5067997685185186 4.254195601851852  1.9646990740740742 4.444444444444445  2.5 4.444444444444445  C 3.035300925925926 4.444444444444445  3.4932002314814814 4.254195601851852  3.873697916666667 3.873697916666667  Z M 4.802517361111111 1.529947916666667  C 4.934172453703704 1.8381076388888888  5 2.161458333333333  5 2.5  C 5 2.838541666666666  4.934172453703704 3.161892361111111  4.802517361111111 3.470052083333334  C 4.670862268518519 3.778211805555556  4.49291087962963 4.044415509259259  4.268663194444445 4.268663194444445  C 4.0444155092592595 4.49291087962963  3.778211805555556 4.670862268518519  3.470052083333333 4.802517361111111  C 3.161892361111111 4.934172453703703  2.838541666666667 5  2.5 5  C 2.161458333333334 5  1.8381076388888893 4.934172453703703  1.5299479166666665 4.802517361111111  C 1.2217881944444444 4.670862268518519  0.9555844907407408 4.49291087962963  0.7313368055555556 4.268663194444445  C 0.5070891203703705 4.044415509259259  0.3291377314814815 3.778211805555556  0.1974826388888889 3.470052083333334  C 0.0658275462962963 3.161892361111111  0 2.838541666666666  0 2.5  C 0 2.161458333333333  0.0658275462962963 1.8381076388888888  0.1974826388888889 1.529947916666667  C 0.3291377314814815 1.2217881944444442  0.5070891203703705 0.9555844907407401  0.7313368055555556 0.7313368055555558  C 0.9555844907407408 0.5070891203703698  1.2217881944444444 0.3291377314814814  1.5299479166666665 0.19748263888888895  C 1.8381076388888893 0.06582754629629539  2.161458333333334 0  2.5 0  C 2.838541666666667 0  3.161892361111111 0.06582754629629539  3.470052083333333 0.19748263888888895  C 3.778211805555556 0.3291377314814814  4.0444155092592595 0.5070891203703698  4.268663194444445 0.7313368055555558  C 4.49291087962963 0.9555844907407401  4.670862268518519 1.2217881944444442  4.802517361111111 1.529947916666667  Z " fill-rule="nonzero" fill="#000000" stroke="none" transform="matrix(1 0 0 1 1113 55 )" />
  </g>
</svg>