<?xml version="1.0" encoding="utf-8"?>
<svg version="1.1" xmlns:xlink="http://www.w3.org/1999/xlink" width="498px" height="621px" xmlns="http://www.w3.org/2000/svg">
  <g transform="matrix(1 0 0 1 -108 -335 )">
    <path d="M 108 335  L 606 335  L 606 956  L 108 956  L 108 335  " fill-rule="nonzero" fill="#cccccc" stroke="none" />
    <path d="M 143 370  L 571 370  L 571 921  L 143 921  L 143 370  " fill-rule="nonzero" fill="#ffffff" stroke="none" />
    <path d="M 404.31000000000006 502.84999999999997  C 383.39400000000006 502.84999999999997  366.96000000000004 486.416  366.96000000000004 465.5  C 366.96000000000004 444.584  383.39400000000006 428.15  404.31000000000006 428.15  C 425.22600000000006 428.15  441.66 444.584  441.66 465.5  C 441.66 486.416  425.22600000000006 502.84999999999997  404.31000000000006 502.84999999999997  " fill-rule="nonzero" fill="#cccccc" stroke="none" />
    <path d="M 156 909  L 156 619.7  L 256.75 488.2  L 397.79999999999995 593.4000000000001  L 478.40000000000003 567.0999999999999  L 559 593.4000000000001  L 559 909  L 156 909  " fill-rule="nonzero" fill="#169bd5" stroke="none" />
  </g>
</svg>